<?xml version="1.0" encoding="utf-8" ?>
<!DOCTYPE svg PUBLIC "-//W3C//DTD SVG 1.1//EN" "http://www.w3.org/Graphics/SVG/1.1/DTD/svg11.dtd">
<svg xmlns="http://www.w3.org/2000/svg" viewBox="0 0 281.99 58.48"><defs><style>.cls-1{fill:#1e1e1e;}.cls-2{fill:#b8d433;}.cls-3{fill:#5bc7d3;}.cls-4{fill:#6d55a3;}.cls-5{fill:#d4d634;}</style></defs><g id="MAIN_LOGO" data-name="MAIN LOGO"><rect class="cls-1" x="10.73" y="2.43" width="11.73" height="11.73" transform="translate(10.73 -9.3) rotate(45)"/><rect class="cls-2" x="19.02" y="10.73" width="11.73" height="11.73" transform="translate(19.02 -12.74) rotate(45)"/><rect class="cls-3" x="10.73" y="19.02" width="11.73" height="11.73" transform="translate(22.46 -4.44) rotate(45)"/><rect class="cls-4" x="19.02" y="10.73" width="11.73" height="11.73" transform="translate(54.22 10.73) rotate(135)"/><rect class="cls-5" x="2.43" y="10.73" width="11.73" height="11.73" transform="translate(25.9 22.46) rotate(135)"/><path class="cls-1" d="M67.07,43.58a9.2,9.2,0,0,0-4.69-1.28c-3.62,0-6.52,2.69-6.52,7.62,0,4.69,2.61,7.54,6.58,7.54a8.15,8.15,0,0,0,4.61-1.36l.26,1a9,9,0,0,1-4.9,1.34c-4.74,0-7.7-3.31-7.7-8.56s3.25-8.63,7.73-8.63a9.89,9.89,0,0,1,5,1.33Z"/><path class="cls-1" d="M79,58.48c-4.39,0-8-3.58-8-8.58,0-5.17,3.41-8.61,8-8.61,4.39,0,8,3.54,8,8.55C87,55,83.56,58.48,79,58.48Zm0-16.2c-3.92,0-6.8,3.11-6.8,7.56s3,7.65,6.9,7.65,6.8-3.14,6.8-7.59S82.84,42.28,78.93,42.28Z"/><path class="cls-1" d="M106.26,43l-5.91,15.27H98.91l-6-15.3-.37,15.27H91.42L92,41.56h1.57L99.66,57.3l6-15.74h1.55l.5,16.65h-1.11Z"/><path class="cls-1" d="M116.55,52l-2.32,0v6.21h-1.12V41.56h3.73c4.21,0,6.37,2,6.37,5C123.21,50.11,120.65,51.92,116.55,52Zm.29-9.4h-2.61V51l2.32,0c3.46-.05,5.48-1.3,5.48-4.37C122,44.09,120.12,42.57,116.84,42.57Z"/><path class="cls-1" d="M139.46,58.21h-1.15L136.37,53h-7.86l-1.95,5.2h-1.12l6.37-16.65h1.39Zm-7-15.67L128.91,52H136Z"/><path class="cls-1" d="M155,41.56h1.06V58.37h-1.22L144.71,43.1V58.21h-1.07V41.56H145L155,56.69Z"/><path class="cls-1" d="M161.81,58.21V41.56h1.12V58.21Z"/><path class="cls-1" d="M168.66,58.21V41.56h9.53v1h-8.42v6.82h7v1h-7V57.2h8.42v1Z"/><path class="cls-1" d="M191.27,54c0-2.24-1.94-3.12-4.45-4-2.29-.77-4.66-1.78-4.66-4.47,0-2.45,2.16-4.32,5.06-4.32A8.68,8.68,0,0,1,192,42.68l-.42,1a7.9,7.9,0,0,0-4.35-1.38c-2.61,0-4,1.57-4,3.25,0,2,1.86,2.82,4.34,3.67s4.74,1.84,4.74,4.72c0,2.58-2.21,4.56-5.38,4.56a9.11,9.11,0,0,1-5.09-1.5l.43-1A8.34,8.34,0,0,0,187,57.49C189.57,57.49,191.27,55.89,191.27,54Z"/><path class="cls-1" d="M54.44,14.1c0-8,6.07-13.43,14.06-13.43a12,12,0,0,1,11.33,7l-5.77,2.72A6.22,6.22,0,0,0,68.5,6.59a7.18,7.18,0,0,0-7.25,7.51,7.18,7.18,0,0,0,7.25,7.52,6.23,6.23,0,0,0,5.56-3.78l5.77,2.73a12.09,12.09,0,0,1-11.33,7C60.51,27.54,54.44,22.08,54.44,14.1Z"/><path class="cls-1" d="M99.14,27.07l-4.36-8.72H91.35v8.72h-6.7V1.1h13c5.76,0,9,3.81,9,8.64a7.87,7.87,0,0,1-5.18,7.79l5.3,9.54ZM99.88,9.7c0-1.75-1.48-2.76-3.23-2.76h-5.3v5.57h5.3C98.4,12.51,99.88,11.53,99.88,9.7Z"/><path class="cls-1" d="M111,14.1C111,6.2,117,.67,124.92.67S138.78,6.2,138.78,14.1s-5.92,13.44-13.86,13.44S111,22,111,14.1Zm21,0c0-4.24-2.76-7.51-7-7.51s-7.09,3.27-7.09,7.51,2.76,7.52,7.09,7.52S132,18.31,132,14.1Z"/><path class="cls-1" d="M142.24,23.41l3.55-5a11.73,11.73,0,0,0,8.29,3.43c2.3,0,3.7-.89,3.7-2.14s-1.95-1.79-4.44-2.3c-4.28-.85-10.28-2-10.28-8.41,0-4.36,3.7-8.25,10.36-8.25A15.81,15.81,0,0,1,164,4.33l-3.66,4.79a12.23,12.23,0,0,0-7.59-2.69c-1.95,0-2.81.78-2.81,1.87,0,1.25,2,1.67,4.48,2.26,4.29.89,10.2,2.18,10.2,8.29,0,5.22-3.85,8.69-10.82,8.69C148.51,27.54,144.85,25.9,142.24,23.41Z"/><path class="cls-1" d="M167.79,23.41l3.54-5a11.73,11.73,0,0,0,8.29,3.43c2.3,0,3.7-.89,3.7-2.14s-1.94-1.79-4.44-2.3c-4.28-.85-10.28-2-10.28-8.41C168.6,4.6,172.3.71,179,.71a15.8,15.8,0,0,1,10.55,3.62l-3.66,4.79a12.23,12.23,0,0,0-7.59-2.69c-1.95,0-2.8.78-2.8,1.87,0,1.25,2,1.67,4.47,2.26,4.29.89,10.21,2.18,10.21,8.29,0,5.22-3.86,8.69-10.83,8.69C174.06,27.54,170.4,25.9,167.79,23.41Z"/><path class="cls-1" d="M215,27.07l-3.94-16.28-3.93,16.28h-7.08l-7.44-26h7.51l3.94,17.32L208.52,1.1h5.13l4.44,17.32L222,1.1h7.55l-7.44,26Z"/><path class="cls-1" d="M249.6,27.07l-1.29-3.74H238.07l-1.29,3.74h-7.59L239,1.1h8.42l9.81,26ZM243.17,7.72l-3.31,9.77h6.62Z"/><path class="cls-1" d="M265.48,27.07V16.59L255.63,1.1h7.55l5.65,9.57L274.4,1.1H282l-9.81,15.49V27.07Z"/></g></svg>